<svg xmlns="http://www.w3.org/2000/svg" viewBox="0 0 512 512"><path d="M276 190c-5.52 0-10 4.48-10 10s4.48 10 10 10 10-4.48 10-10-4.48-10-10-10zM236 190c-5.52 0-10 4.48-10 10s4.48 10 10 10 10-4.48 10-10-4.48-10-10-10zM212.75 110h-13.5c-18.334 0-33.25 14.916-33.25 33.25v4.5c0 19.289 15.851 33.279 33.14 33.279 8.254 0 12.654-2.762 24.126-6.24C236.875 170.262 246 157.535 246 143.25c0-18.334-14.916-33.25-33.25-33.25zm4.204 45.811l-.004.002-13.512 4.501c-8.605 2.867-17.437-3.53-17.437-12.563v-4.501H186c0-7.306 5.944-13.25 13.25-13.25h13.5c7.306 0 13.25 5.944 13.25 13.25 0 5.591-3.557 10.736-9.046 12.561zM312.75 110h-13.5c-18.376 0-33.25 14.87-33.25 33.25a33.214 33.214 0 0022.73 31.537l13.508 4.499C323.734 186.454 346 170.518 346 147.75v-4.5c0-18.334-14.916-33.25-33.25-33.25zM326 147.75c0 9.053-8.849 15.425-17.437 12.563l-.003-.001-13.503-4.497a13.238 13.238 0 01-9.058-12.565C286 135.926 291.926 130 299.25 130h13.5c7.306 0 13.25 5.944 13.25 13.25v4.5zM433.419 392.83c-13.623-2.563-29.964 1.563-39.771 15.521L332.158 382l61.589-26.395C401.139 365.799 412.963 372 426 372c22.056 0 40-17.944 40-40 0-14.571-8.021-27.751-20.358-34.721C448.878 273.508 430.249 252 406 252c-26.769 0-45.317 25.777-38.658 49.645l-111.341 47.716-111.438-47.757C151.335 276.382 131.828 252 106 252c-24.272 0-42.881 21.537-39.641 45.279-31.36 17.71-25.883 66.727 12.223 73.891 13.624 2.563 29.962-1.563 39.771-15.521L179.842 382l-61.589 26.395C110.861 398.2 99.037 392 86 392c-22.056 0-40 17.944-40 40 0 14.572 8.019 27.752 20.359 34.721C63.116 490.488 81.751 512 106 512c26.351 0 45.43-25.361 38.659-49.645l111.34-47.716 111.438 47.757C360.669 487.596 380.152 512 406 512c24.283 0 42.875-21.535 39.642-45.279 31.34-17.704 25.907-66.722-12.223-73.891zm-315.58-59.161c-5.177-2.221-11.2.281-13.256 5.561-4.417 11.332-14.777 13.699-22.306 12.285-21.492-4.042-21.414-33.3-1.467-38.713 5.765-1.565 8.886-7.812 6.666-13.365C82.109 286.027 92.11 272 106 272c14.414 0 25.444 15.462 16.953 29.819-3.077 5.203-.864 11.912 4.668 14.282l102.993 44.139-25.386 10.879-87.389-37.45zm9.782 114.229c-5.539 2.374-7.745 9.09-4.663 14.291C131.5 476.6 120.295 492 106 492c-13.867 0-23.901-14.004-18.525-27.437 2.218-5.548-.896-11.799-6.666-13.365C72.09 448.833 66 440.938 66 432c0-11.028 8.972-20 20-20 8.263 0 15.557 5.014 18.583 12.772 2.052 5.263 8.059 7.786 13.255 5.559L384.38 316.102c5.539-2.374 7.745-9.09 4.663-14.291C380.498 287.402 391.704 272 406 272c13.893 0 23.892 14.029 18.525 27.435-2.22 5.546.894 11.8 6.665 13.367C439.91 315.168 446 323.063 446 332c0 11.028-8.972 20-20 20-8.263 0-15.558-5.014-18.584-12.773-2.051-5.261-8.057-7.784-13.256-5.558l-91.33 39.14-175.209 75.089zm303.57 3.3a10.002 10.002 0 00-6.665 13.367C429.882 477.946 419.92 492 406 492c-14.415 0-25.445-15.462-16.952-29.819 3.078-5.205.861-11.913-4.668-14.282L281.386 403.76l25.385-10.879 87.389 37.45c5.178 2.221 11.198-.28 13.257-5.56 4.416-11.332 14.774-13.701 22.307-12.286 21.492 4.042 21.415 33.3 1.467 38.713z"/><path d="M386 110C386 38.045 327.919 0 256 0c-71.979 0-130 38.097-130 110 0 15.81 2.936 39.238 8.427 55.604C129.013 172.575 126 181.162 126 190c0 26.409 25.752 45.827 51.044 38.321l6.619.006A9.71 9.71 0 01186 234.66V266c0 16.542 13.458 30 30 30h80c16.542 0 30-13.458 30-30v-32.13c0-2.003.72-3.892 1.994-5.364l7.712.012C360.851 235.434 386 216.177 386 190c0-8.839-3.013-17.425-8.427-24.396C383.065 149.238 386 125.81 386 110zm-26.667 65.237C363.632 179.125 366 184.368 366 190c0 13.357-13.099 22.918-25.912 18.964a10.017 10.017 0 00-2.933-.444c-10.986.35-14.105-.992-18.094 1.55-8.178 5.218-13.061 14.116-13.061 23.8V266c0 5.514-4.486 10-10 10h-10v-36c0-5.522-4.478-10-10-10s-10 4.478-10 10v36h-20v-36c0-5.522-4.478-10-10-10-5.523 0-10 4.478-10 10v36h-10c-5.514 0-10-4.486-10-10v-31.34c0-15.288-11.736-26.323-18.652-26.33l-11.838-.01c-4.119 0-7.312 3.425-15.861.505a10.01 10.01 0 00-.446-.14C151.299 205.808 146 198.318 146 190c0-5.632 2.368-10.875 6.667-14.763a9.999 9.999 0 002.462-11.407C149.415 150.699 146 126.148 146 110c0-66.357 56.823-90 110-90 53.178 0 110 23.643 110 90 0 16.148-3.415 40.699-9.129 53.83a9.997 9.997 0 002.462 11.407z"/></svg>